<svg xmlns="http://www.w3.org/2000/svg" width="1600" height="1200" viewBox="0 0 1600 1200">
  <defs>
    <linearGradient id="bg2" x1="0%" y1="0%" x2="0%" y2="100%">
      <stop offset="0%" style="stop-color:#0f2f2c"/>
      <stop offset="100%" style="stop-color:#0a2320"/>
    </linearGradient>
  </defs>

  <!-- Background -->
  <rect width="1600" height="1200" fill="url(#bg2)"/>

  <!-- Header bar simulation -->
  <rect x="40" y="40" width="1520" height="80" rx="8" fill="#1a4a45" opacity="0.5"/>

  <!-- Sidebar simulation -->
  <rect x="40" y="140" width="280" height="1020" rx="8" fill="#1a4a45" opacity="0.3"/>

  <!-- Table header -->
  <rect x="340" y="140" width="1220" height="60" rx="8" fill="#23b086" opacity="0.3"/>

  <!-- Table rows -->
  <rect x="340" y="210" width="1220" height="70" rx="4" fill="#1a4a45" opacity="0.25"/>
  <rect x="340" y="290" width="1220" height="70" rx="4" fill="#1a4a45" opacity="0.35"/>
  <rect x="340" y="370" width="1220" height="70" rx="4" fill="#1a4a45" opacity="0.25"/>
  <rect x="340" y="450" width="1220" height="70" rx="4" fill="#1a4a45" opacity="0.35"/>
  <rect x="340" y="530" width="1220" height="70" rx="4" fill="#1a4a45" opacity="0.25"/>
  <rect x="340" y="610" width="1220" height="70" rx="4" fill="#1a4a45" opacity="0.35"/>
  <rect x="340" y="690" width="1220" height="70" rx="4" fill="#1a4a45" opacity="0.25"/>
  <rect x="340" y="770" width="1220" height="70" rx="4" fill="#1a4a45" opacity="0.35"/>
  <rect x="340" y="850" width="1220" height="70" rx="4" fill="#1a4a45" opacity="0.25"/>

  <!-- Table column separators -->
  <line x1="540" y1="140" x2="540" y2="920" stroke="#23b086" stroke-width="1" opacity="0.15"/>
  <line x1="800" y1="140" x2="800" y2="920" stroke="#23b086" stroke-width="1" opacity="0.15"/>
  <line x1="1050" y1="140" x2="1050" y2="920" stroke="#23b086" stroke-width="1" opacity="0.15"/>
  <line x1="1300" y1="140" x2="1300" y2="920" stroke="#23b086" stroke-width="1" opacity="0.15"/>

  <!-- Summary cards at bottom -->
  <rect x="340" y="960" width="290" height="180" rx="12" fill="#1a4a45" opacity="0.4"/>
  <rect x="650" y="960" width="290" height="180" rx="12" fill="#23b086" opacity="0.2"/>
  <rect x="960" y="960" width="290" height="180" rx="12" fill="#1a4a45" opacity="0.4"/>
  <rect x="1270" y="960" width="290" height="180" rx="12" fill="#1a4a45" opacity="0.4"/>

  <!-- Conance branding -->
  <text x="800" y="600" font-family="Inter, system-ui, sans-serif" font-size="48" fill="#23b086" text-anchor="middle" opacity="0.2">
    Commissions Preview
  </text>
</svg>
